<?xml version="1.0" encoding="utf-8"?>
<!-- Generator: Adobe Illustrator 16.0.0, SVG Export Plug-In . SVG Version: 6.00 Build 0)  -->
<!DOCTYPE svg PUBLIC "-//W3C//DTD SVG 1.1 Tiny//EN" "http://www.w3.org/Graphics/SVG/1.1/DTD/svg11-tiny.dtd">
<svg version="1.1" baseProfile="tiny" id="Layer_3" xmlns="http://www.w3.org/2000/svg" xmlns:xlink="http://www.w3.org/1999/xlink"
	 x="0px" y="0px" width="16.25px" height="19.917px" viewBox="0 0 16.25 19.917" xml:space="preserve">
<path fill="#FFFFFF" d="M10.316,17.207c-0.044-0.034-0.079-0.181-0.077-0.328l0.154-10.323c0.002-0.146-0.088-0.344-0.2-0.438
	L9.466,5.507C9.353,5.413,9.261,5.263,9.261,5.174c0-0.089-0.05-0.194-0.111-0.234C9.089,4.901,9.038,4.75,9.038,4.603V1.28
	c0-0.146-0.107-0.319-0.24-0.382c0,0-0.213-0.103-0.673-0.11c-0.46,0.007-0.673,0.11-0.673,0.11c-0.133,0.063-0.24,0.236-0.24,0.382
	v3.322c0,0.147-0.051,0.298-0.111,0.337c-0.062,0.04-0.111,0.145-0.111,0.234c0,0.089-0.092,0.239-0.205,0.333L6.058,6.118
	C5.944,6.212,5.854,6.409,5.856,6.556l0.154,10.323c0.002,0.147-0.032,0.294-0.077,0.328s-0.081,0.107-0.081,0.162
	c0,0.057,0,0.223,0,0.369c0,0,0,0.158,0,0.809c0,0.649,1.177,0.953,2.172,0.953c0.031,0,0.031,0,0.031,0c0.038,0,0.102,0,0.139,0
	c0,0,0,0,0.032,0c0.994,0,2.171-0.304,2.171-0.953c0-0.65,0-0.809,0-0.809c0-0.146,0-0.313,0-0.369
	C10.397,17.314,10.361,17.241,10.316,17.207z"/>
</svg>
