<?xml version="1.0" encoding="utf-8"?>
<!-- Generator: Adobe Illustrator 16.0.0, SVG Export Plug-In . SVG Version: 6.00 Build 0)  -->
<!DOCTYPE svg PUBLIC "-//W3C//DTD SVG 1.1 Tiny//EN" "http://www.w3.org/Graphics/SVG/1.1/DTD/svg11-tiny.dtd">
<svg version="1.1" baseProfile="tiny" id="Layer_1" xmlns="http://www.w3.org/2000/svg" xmlns:xlink="http://www.w3.org/1999/xlink"
	 x="0px" y="0px" width="575.971px" height="205.49px" viewBox="0 0 575.971 205.49" xml:space="preserve">
<path fill-rule="evenodd" fill="#FFFFFF" d="M542.595,17.311c-1.886-0.06-3.773-0.097-5.661-0.107
	c-0.647-0.004-1.295,0.148-1.941,0.139c-1.796-0.026-3.592-0.121-5.388-0.143c-0.761-0.009-1.525,0.166-2.283,0.134
	c-1.422-0.06-2.838-0.256-4.26-0.31c-2.263-0.085-4.528,0.813-6.796-0.019c-0.164-0.061-0.396-0.012-0.574,0.049
	c-3.017,1.042-6.141-0.428-9.165,0.393c-0.07,0.019-0.153-0.021-0.23-0.024c-2.987-0.155-5.973-0.383-8.961-0.445
	c-3.729-0.078-7.463-0.008-11.194-0.035c-0.361-0.002-0.721-0.234-1.081-0.359c0.005-0.002,0.011-0.006,0.016-0.008
	c-0.3-0.156-0.643-0.367-1.687-0.291c-0.199,0.015-0.396,0.029-0.591,0.044c-3.186,0.243-6.356-0.216-9.564,0.013
	c-5.5,0.393-11.032,0.325-16.548,0.514c-3.956,0.135-7.908,0.374-11.862,0.563c-0.151,0.007-0.306-0.005-0.456-0.023
	c-1.188-0.143-2.372-0.376-3.563-0.411c-1.142-0.034-2.2-0.082-3.209-0.768c-0.348-0.236-1.331-0.164-1.52,0.112
	c-0.478,0.7-1.075,0.65-1.719,0.67c-8.314,0.258-16.628,0.538-24.943,0.753c-1.762,0.045-3.534-0.269-5.294-0.206
	c-5.553,0.196-11.101,0.543-16.654,0.723c-2.139,0.069-4.32,0.654-6.435-0.242c-0.113-0.048-0.289,0.063-0.438,0.083
	c-0.876,0.121-1.754,0.338-2.632,0.341c-10.418,0.024-20.837,0.004-31.255,0.026c-1.825,0.003-3.657,0.067-5.472,0.245
	c-1.505,0.147-3.073,0.24-4.329,1.247c0.426,1.271,1.182,1.698,2.428,1.539c1.655-0.211,3.329-0.294,4.997-0.379
	c4.487-0.228,8.965-1.108,13.47-0.206c0.148,0.03,0.321,0.064,0.457,0.02c2.738-0.901,5.439-0.078,8.151,0.173
	c0.029,0.003,0.048,0.124,0.175,0.47c-1.081-0.113-2.04-0.212-2.999-0.316c-0.291-0.032-0.587-0.138-0.871-0.11
	c-0.994,0.097-1.982,0.317-2.978,0.346c-1.971,0.057-3.944,0.017-5.898,0.017c-0.174,1.646,0.035,1.923,1.66,2.049
	c0.698,0.054,1.026,0.21,0.684,1.015c-7.861,0.087-15.656,0.742-23.386,2.108c0,0.566,0,1.024,0,1.327
	c1.771,0.74,3.489,1.353,5.106,2.168c1.322,0.667,2.232,1.768,2.487,3.328c0.167,1.019-0.084,1.477-1.217,1.508
	c-2.912,0.081-5.819,0.281-8.73,0.408c-0.648,0.028-1.246,0.144-1.209,0.909c0.034,0.69,0.32,1.223,1.244,1.157
	c1.898-0.135,3.806-0.16,5.708-0.242c11.922-0.513,23.841-1.127,35.767-1.503c5.59-0.176,11.141-0.787,16.791-0.487
	c5.902,0.312,11.864-0.567,17.804-0.844c0.884-0.042,1.808,0.295,2.676,0.572c0.827,0.264,0.981,0.778,0.505,1.609
	c-1.33,2.323-2.695,4.642-3.81,7.071c-0.963,2.1-1.456,4.415-2.406,6.521c-7.426,16.448-14.994,32.831-22.354,49.307
	c-8.042,18-15.899,36.083-23.872,54.114c-0.652,1.475-0.57,2.434,0.951,3.498c-0.139,0.314-0.282,0.641-0.461,1.049
	c-2.531-1.664-4.946-3.287-7.397-4.855c-5.071-3.242-10.246-6.332-15.219-9.719c-4.01-2.732-7.825-5.756-11.652-8.746
	c-5.518-4.309-10.875-8.809-15.665-13.939c-0.376-0.402-0.725-0.832-1.266-1.455c0.957,0,1.59,0.082,2.193-0.014
	c3.443-0.547,7.063-0.639,10.28-1.818c6.069-2.223,12.014-4.865,17.816-7.725c9.025-4.448,17.258-10.167,24.968-16.634
	c0.39-0.326,0.923-0.481,1.638-0.841c-0.455,1.444-1.894,2.02-1.345,3.669c0.4-0.398,0.73-0.668,0.99-0.995
	c3.118-3.924,6.271-7.822,9.317-11.802c1.31-1.712,2.649-3.483,3.525-5.43c2.314-5.136,3.892-10.523,3.566-16.227
	c-0.306-5.366-2.018-10.159-6.658-13.439c-0.856-0.605-1.688-1.249-2.552-1.842c-4.436-3.047-9.069-5.685-14.297-7.178
	c-4.085-1.167-8.238-0.814-12.39-0.804c-4.259,0.011-8.519,0.915-12.705-0.029c-1.762,2.635-4.615,2.561-7.403,3.337
	c0.134-1.277,0.243-2.313,0.394-3.755c-0.612,0.599-1.087,0.957-1.426,1.416c-0.722,0.978-1.165,2.289-2.088,2.967
	c-3.36,2.473-7.157,4.043-11.351,4.404c-3.367,0.29-6.748,0.42-10.125,0.615c-1.597,0.092-3.195,0.17-4.793,0.254
	c-0.021-0.155-0.043-0.31-0.064-0.464c7.424-3.099,15.07-5.176,23.316-4.655c-1.994-2.896-4.307-5.063-7.99-4.947
	c-3.029,0.095-6.066,0.12-9.084,0.369c-12.354,1.02-24.286,3.908-35.788,8.494c-4.247,1.693-8.57,3.363-12.486,5.674
	c-5.543,3.272-10.794,7.053-16.073,10.755c-6.784,4.759-13.361,9.789-18.966,15.957c-2.399,2.64-4.755,5.317-7.104,7.946
	c-1.918-1.433-4.365-2.22-6.064-4.234c0.567-0.28,1.006-0.497,1.424-0.704c-0.067-0.885-0.54-1.094-1.321-1.153
	c-1.62-0.124-3.251-0.284-4.833-0.632c-0.688-0.151-1.479-0.672-1.833-1.261c-0.386-0.642-0.771-0.737-1.376-0.705
	c-1.974,0.104-3.95,0.632-5.918-0.142c-0.488-0.192-1.071-0.157-1.613-0.193c-9.207-0.604-18.205,0.944-27.168,2.732
	c-1.545,0.308-2.559-0.223-3.468-1.267c-0.79-0.907-0.767-1.542,0.228-2.229c1.946-1.344,3.871-2.77,5.971-3.832
	c7.099-3.588,14.264-7.047,21.418-10.526c4.433-2.155,8.896-4.249,13.335-6.391c0.371-0.179,0.666-0.515,0.996-0.778
	c-0.091-0.152-0.183-0.304-0.274-0.456c-2.504,0.776-5.005,1.56-7.513,2.322c-0.667,0.202-1.353,0.34-2.03,0.508
	c-0.086-0.14-0.172-0.28-0.259-0.419c0.246-0.289,0.434-0.721,0.745-0.843c3.861-1.522,7.752-2.968,11.608-4.5
	c2.554-1.015,5.065-2.137,7.573-3.201c-0.149-0.966-0.6-1.219-1.472-1.05c-1.523,0.296-3.067,0.488-4.604,0.708
	c-0.882,0.126-1.769,0.222-2.654,0.332c-0.04-0.137-0.08-0.273-0.119-0.41c0.334-0.181,0.652-0.407,1.006-0.536
	c7.615-2.785,15.23-5.57,22.859-8.315c0.67-0.241,0.883-0.519,0.608-1.244c-0.362,0-0.746-0.004-1.129,0
	c-5.973,0.068-11.873,0.851-17.633,2.348c-6.339,1.646-12.722,3.27-18.855,5.527c-10.476,3.856-20.1,9.527-29.768,15.045
	c-4.984,2.845-9.606,6.188-13.436,10.519c-3.118,3.525-5.297,7.509-6.248,12.184c-0.505,2.482-0.135,4.416,1.924,6.054
	c1.585,1.261,3.02,2.725,5.085,3.144c0.799,0.162,1.285,0.462,1.586,1.253c0.594,1.563,1.704,2.33,3.459,2.013
	c1.068-0.192,2.16-0.251,3.238-0.39c1.425-0.183,2.848-0.385,4.271-0.578c0.038,0.116,0.075,0.232,0.113,0.348
	c-1.227,1.449-2.716,2.501-4.713,2.813c0.027,0.377,0.048,0.674,0.08,1.115c0.486-0.15,0.884-0.26,1.273-0.396
	c2.453-0.861,4.886-1.78,7.358-2.582c6.811-2.209,13.718-3.96,20.902-4.472c1.721-0.123,3.212,0.208,4.632,1.119
	c1.321,0.849,1.57,1.368,1.239,2.918c-0.235,1.101-0.45,2.212-0.796,3.279c-0.204,0.628-0.53,1.303-1,1.744
	c-3.768,3.54-7.512,7.111-11.4,10.515c-6.872,6.016-13.658,12.15-20.812,17.816c-11.696,9.266-23.671,18.178-35.5,27.273
	c-5.451,4.191-10.836,8.467-16.251,12.705c0,0.232,0,0.467,0,0.699c0.627,0.592,1.137,0.424,1.809-0.064
	c2.321-1.688,4.669-3.346,7.091-4.883c0.866-0.549,1.97-0.727,2.992-1.082c0.419,1.336,0.112,2.143-0.729,2.842
	c-3.079,2.557-6.135,5.141-9.202,7.713c-0.445,0.375-0.898,0.738-1.581,1.297c0.844,0.615,1.605,1.146,2.34,1.711
	c1.641,1.262,3.265,1.41,5.084,0.258c1.799-1.141,3.717-2.094,5.587-3.119c0.294-0.162,0.76-0.477,0.901-0.375
	c1.005,0.715,1.677-0.033,2.397-0.475c9.772-5.969,18.832-12.918,27.711-20.119c0.12-0.098,0.26-0.17,0.391-0.254
	c-0.064-0.1-0.128-0.201-0.192-0.301c-0.714,0.344-1.453,0.645-2.137,1.041c-0.696,0.404-1.338,0.9-2.208,1.219
	c0.143-0.309,0.202-0.725,0.44-0.912c2.752-2.15,5.531-4.266,8.53-6.219c-0.547,0.82-1.095,1.643-1.642,2.463
	c0.059,0.074,0.117,0.148,0.176,0.223c0.36-0.223,0.756-0.402,1.075-0.674c5.232-4.461,10.591-8.787,15.649-13.438
	c8.213-7.553,16.405-15.121,25.132-22.084c1.235-0.986,2.558-1.859,3.962-2.873c-0.527,2.137-1.092,4.139-1.509,6.17
	c-1.935,9.422-2.535,18.879-0.143,28.303c2.729,10.752,9.583,17.631,20.197,20.68c1.54,0.441,3.33,0.275,4.967,0.08
	c21.866-2.611,39.41-12.594,51.572-31.125c3.274-4.99,5.537-10.674,8.018-16.148c4.24-9.354,7.76-18.98,9.54-29.136
	c0.656-3.737,1.109-7.553,1.153-11.339c0.038-3.218-1.083-6.319-2.521-9.268c2.046-2.659,8.479-7.111,10.785-7.327
	c-0.119,0.669-0.23,1.287-0.396,2.217c0.639-0.267,1.205-0.41,1.666-0.711c2.926-1.91,5.797-3.904,8.754-5.761
	c1.021-0.642,2.239-0.97,3.708-1.584c-0.218,1.138-0.259,1.917-0.517,2.617c-2.407,6.511-4.542,13.144-7.338,19.485
	c-11.729,26.6-20.921,54.133-30.301,81.598c-0.564,1.652-1.142,3.303-1.66,4.969c-0.176,0.564-0.19,1.182-0.279,1.773
	c0.105,0.088,0.21,0.178,0.315,0.268c1.279-0.762,2.604-1.455,3.825-2.301c1.181-0.818,2.254-1.793,3.535-2.828
	c-0.107,0.451-0.163,0.828-0.287,1.182c-0.372,1.063-0.802,2.104-1.148,3.172c-0.315,0.975-0.176,1.867,0.472,2.736
	c0.585,0.783,1.21,0.83,1.861,0.285c3.28-2.75,6.56-5.521,8.99-9.09c0.813-1.193,1.39-2.596,1.845-3.979
	c2.072-6.301,4.045-12.631,6.098-18.938c0.322-0.988,0.84-1.918,1.317-2.85c0.657-1.285,1.771-1.484,2.913-0.551
	c3.068,2.508,6.064,5.113,9.217,7.512c4.914,3.738,9.838,7.479,14.932,10.965c8.393,5.744,16.837,11.424,25.425,16.871
	c6.191,3.926,12.666,7.402,18.989,11.123c5.823,3.428,11.603,6.93,17.423,10.363c2.4,1.414,4.857,2.734,7.288,4.098
	c0.311,0,0.622,0,0.933,0c0-0.498,0-0.998,0-1.484c-1.634-0.486-1.716-0.586-1.476-1.777c0.492,0.1,1,0.156,1.475,0.313
	c0.955,0.314,1.794,0.217,2.642-0.375c0.792-0.551,0.756-1.037,0.016-1.492c-0.783-0.48-1.629-0.863-2.504-1.318
	c0.39-1.334,1.021-2.508,2.188-3.307c0.25-0.172,0.661-0.154,0.997-0.15c0.652,0.01,1.353,0.238,1.941,0.064
	c0.549-0.162,0.85-0.092,1.336,0.16c1.512,0.783,3.052,1.543,4.652,2.109c0.731,0.258,1.631,0.043,2.455,0.043
	c0.046-0.123,0.092-0.246,0.138-0.369c-14.207-7.643-28.35-15.398-42.174-23.781c2.893-6.295,5.724-12.457,8.553-18.613
	c0.562,0.168,1.022,0.305,1.396,0.416c0.501-2.141,0.976-4.164,1.449-6.188c0.065,0.004,0.131,0.008,0.196,0.012
	c0.109,0.348,0.22,0.693,0.329,1.041c0.339-0.424,0.419-0.834,0.543-1.23c0.614-1.957,1.212-3.918,1.877-5.857
	c0.238-0.693,1.215-1.162,0.58-2.121c-0.061-0.092,0.162-0.404,0.292-0.586c2.265-3.148,4.364-6.307,5.509-10.15
	c1.122-3.768,2.912-7.352,4.577-10.939c7.48-16.125,15.042-32.211,22.53-48.332c3.398-7.316,7.724-14.17,10.746-21.676
	c0.473-1.175,1.214-2.257,1.935-3.312c0.498-0.729,1.109-1.413,1.784-1.982c0.837-0.706,1.776-1.299,2.963-0.64
	c0.166,0.092,0.44,0.005,0.662-0.02c0.883-0.097,1.763-0.267,2.646-0.292c4.074-0.117,8.149-0.2,12.225-0.28
	c1.254-0.024,2.521,0.112,3.76-0.026c1.67-0.187,3.306-0.438,4.938,0.211c0.246,0.098,0.596-0.054,0.896-0.105
	c0.641-0.109,1.277-0.314,1.919-0.331c7.228-0.184,14.455-0.359,21.684-0.494c2.524-0.047,5.05-0.023,7.576-0.014
	c1.003-0.009,1.151-0.417-0.356-0.417c-0.296,0-0.592,0-0.888,0c0.455-0.169,0.906-0.313,1.362-0.335
	c1.07-0.051,2.145-0.076,3.215-0.044c0.54,0.016,1.083,0.29,1.612,0.255c1.934-0.128,3.858-0.441,5.791-0.493
	c3.225-0.085,6.452-0.027,9.679-0.021c0.646,0.001,1.222-0.019,0.807-0.888c-2.168-0.187-4.292-0.39-6.419-0.536
	c-0.491-0.034-0.996,0.128-1.31,0.174c-0.916-0.25-1.707-0.616-2.515-0.66c-2.364-0.127-4.736-0.128-7.104-0.177
	c-0.612-0.013-1.242,0.001-1.224-0.975c0.487,0,0.912,0.02,1.336-0.003c3.49-0.184,7.035-0.056,10.455-0.649
	c3.859-0.669,7.69-0.908,11.575-0.862c0.631,0.008,1.273-0.372,1.896-0.333c1.357,0.084,1.354,0.148,1.106-1.167
	c-0.144-0.015-0.298-0.025-0.449-0.047c-0.121-0.018-0.241-0.05-0.664-0.142c3.085-1.825,6.065-2.803,9.48-2.616
	c-0.897-1.714-2.913-1.145-4.148-2.059c0.938-1.448,2.601-2.384,4.183-2.385c4.237,0,8.475,0,12.712,0c1.314,0,2.63,0,3.911,0
	C543.589,17.672,543.263,17.332,542.595,17.311z M188.852,57.58c0.131,0.131,0.262,0.262,0.394,0.394
	c-0.243,0.335-0.411,0.826-0.738,0.981c-6.157,2.93-12.331,5.826-18.51,8.709c-0.544,0.254-1.151,0.373-1.798,0.39
	C174.885,64.149,181.375,59.877,188.852,57.58z M145.313,84.424c0.208,0,0.579-0.075,0.622,0.011
	c0.634,1.283,1.225,2.587,1.838,3.911C145.649,87.92,145.008,86.904,145.313,84.424z M149.975,80.367
	c1.232-0.156,1.37-0.03,1.319,1.277c-0.407,0-0.817,0-1.319,0C149.975,81.236,149.975,80.802,149.975,80.367z M149.934,84.585
	c1.918-0.594,7.234,2.267,7.133,3.91C154.27,88.745,150.794,86.815,149.934,84.585z M117.292,161.332
	c2.505-1.695,5.04-3.348,7.564-5.012c4.797-3.164,9.592-6.33,14.392-9.488c0.378-0.25,0.793-0.443,1.19-0.664
	c0.086,0.094,0.171,0.188,0.257,0.281c-0.294,0.242-0.58,0.494-0.884,0.723c-6.611,4.967-13.2,9.965-19.873,14.846
	c-0.7,0.512-1.901,0.34-3.204,0.535C117.014,161.918,117.061,161.488,117.292,161.332z M139.795,158.381
	c-0.128-0.191-0.256-0.383-0.384-0.574c0.94-0.627,1.881-1.254,2.822-1.883c0.125,0.188,0.25,0.373,0.375,0.561
	C141.671,157.115,140.733,157.748,139.795,158.381z M131.438,160.129c-5.71,4.359-11.543,8.559-17.385,12.742
	c-1.374,0.984-2.985,1.641-4.507,2.408c-0.669,0.338-1.2,0.152-1.37-0.371c5.626-4.17,11.126-8.34,16.726-12.371
	c6.431-4.631,12.949-9.143,19.438-13.693c0.41-0.287,0.892-0.471,1.34-0.705c0.066,0.135,0.133,0.27,0.2,0.404
	C141.072,152.414,136.341,156.385,131.438,160.129z M292.758,44.306c0.109,0.107,0.217,0.215,0.326,0.322
	c-0.24,0.276-0.432,0.637-0.732,0.809c-0.43,0.245-1.004,0.257-1.402,0.534c-2.536,1.763-5.359,1.227-8.136,1.083
	c-0.113-0.006-0.232-0.038-0.332-0.09c-0.055-0.029-0.074-0.126-0.231-0.419C285.798,45.789,289.278,45.047,292.758,44.306z
	 M243.683,73.228c-0.288,0.324-0.567,0.656-0.866,0.97c-6.76,7.101-13.181,14.476-18.699,22.61
	c-3.447,5.081-5.965,10.606-8.219,16.282c-0.796,2.004-1.744,3.947-2.622,5.92c-0.1-0.057-0.2-0.111-0.299-0.168
	c1.98-6.857,3.968-13.718,7.495-19.99c1.248-2.218,2.629-4.333,3.668-6.693c1.421-3.229,3.792-5.896,6.398-8.234
	c4.015-3.603,8.202-7.014,12.321-10.501C243.049,73.265,243.285,73.163,243.683,73.228z M237.782,64.592
	c0.114,0.086,0.228,0.172,0.342,0.259c-0.465,0.718-0.815,1.557-1.419,2.128c-1.15,1.088-2.453,2.014-3.678,3.024
	c-1.1,0.906-2.249,1.765-3.26,2.763c-5.832,5.754-11.629,11.543-17.441,17.317c-0.153,0.152-0.338,0.27-0.65,0.256
	C219.231,80.589,227.09,71.152,237.782,64.592z M218.845,87.193c-3.215,7.026-7.968,13.049-12.318,19.336
	c-0.182-0.113-0.365-0.225-0.548-0.336C208.82,98.907,212.765,92.347,218.845,87.193z M201.395,86.202
	c2.451,0.564,3.527,1.92,3.334,4.244c-2.179-1.254-4.278-2.462-6.397-3.682C198.656,85.886,199.353,85.732,201.395,86.202z
	 M196.358,96.876c-1.285-0.024-1.492-0.324-1.375-1.89C196.266,94.71,196.578,95.117,196.358,96.876z M203.631,94.415
	c-2.38-1.735-4.709-3.434-7.102-5.178C199.379,88.822,204.105,92.164,203.631,94.415z M201.206,97.236
	c-1.012-0.175-1.112-0.369-0.917-1.828C201.474,95.67,201.162,96.511,201.206,97.236z M200.53,117.025
	c0.945,2.613-0.202,5.121-0.423,7.662c-0.615,7.053-1.294,14.096-0.292,21.162c0.184,1.297,0.637,2.555,0.946,3.836
	c0.118,0.488,0.177,0.99,0.263,1.486c-0.149,0.055-0.299,0.111-0.448,0.166c-0.254-0.51-0.625-0.992-0.745-1.531
	c-0.814-3.67-1.707-7.328-2.313-11.033c-0.494-3.021-0.664-6.102-0.908-9.16c-0.344-4.303,0.704-8.422,1.927-12.479
	c1.007-3.34,2.198-6.629,3.416-9.898c0.318-0.854,1.038-1.557,1.573-2.329c0.108,0.06,0.217,0.12,0.325,0.18
	c-0.136,0.468-0.275,0.936-0.408,1.405c-0.924,3.285-1.848,6.572-2.77,9.859C200.609,116.576,200.463,116.842,200.53,117.025z
	 M206.223,151.297c-0.196-0.371-0.443-0.727-0.58-1.117c-1.422-4.059-1.97-8.293-2.594-12.52c-0.729-4.941,1.121-9.404,2.368-13.984
	c0.04-0.148,0.229-0.254,0.348-0.379c0.12,0.037,0.239,0.074,0.358,0.109c-0.358,3.107-0.937,6.209-1.014,9.322
	c-0.076,3.08-0.198,6.189,0.034,9.256c0.234,3.08,0.987,6.119,1.512,9.176C206.512,151.205,206.367,151.252,206.223,151.297z
	 M217.577,154.547c-4.505,0.66-7.586-1.875-7.422-5.938C212.587,150.617,215.208,152.24,217.577,154.547z M211.227,157.037
	c2.065,0.996,4.073,1.965,6.386,3.08C214.588,160.592,211.572,159.061,211.227,157.037z M221.352,157.529
	c-0.061-0.123-0.123-0.244-0.184-0.367c0.42-0.27,0.834-0.76,1.262-0.771c2.672-0.07,5.347-0.037,8.021-0.025
	c0.083,0.002,0.167,0.131,0.415,0.338C227.674,158.039,224.469,157.289,221.352,157.529z M247.915,145.252
	c-0.152-0.109-0.303-0.219-0.455-0.328c0.349-0.592,0.601-1.277,1.063-1.758c2.793-2.906,5.628-5.773,8.466-8.637
	c0.635-0.641,1.339-1.213,2.011-1.816c0.152,0.16,0.305,0.32,0.458,0.48C255.782,137.375,252.399,141.836,247.915,145.252z
	 M253.305,151.373c-0.111-0.104-0.223-0.205-0.334-0.307c0.287-0.307,0.571-0.617,0.862-0.92c3.064-3.189,6.12-6.387,9.21-9.553
	c0.27-0.275,0.771-0.326,1.166-0.482c0.035,0.121,0.07,0.242,0.105,0.363C260.644,144.107,256.975,147.74,253.305,151.373z
	 M266.97,127.518c-0.493-1.445,0.852-3.885,2.458-4.43C268.648,124.494,267.868,125.9,266.97,127.518z M279.38,111.066
	c1.542-7.887,3.036-15.457,6.599-22.441C286.194,92.037,281.04,109.975,279.38,111.066z M304.066,49.753
	c-7.374,4.354-14.063,9.562-19.843,15.902c-0.264,0.289-0.567,0.708-0.549,1.051c0.037,0.703,0.827,0.854,1.495,0.303
	c1.827-1.51,3.623-3.059,5.473-4.54c0.412-0.33,0.996-0.447,1.5-0.663c0.1,0.141,0.199,0.281,0.299,0.422
	c-0.513,0.744-0.969,1.537-1.55,2.223c-2.011,2.372-4.071,4.7-6.097,7.059c-0.297,0.346-0.502,0.771-0.749,1.158
	c0.102,0.099,0.203,0.198,0.305,0.297c0.501-0.327,1.001-0.655,1.524-0.997c0.695,1.132,0.926,2.284,0.771,3.637
	c-0.441,3.871-1.109,7.681-2.352,11.379c-0.099,0.293-0.214,0.582-0.34,0.864c-0.019,0.043-0.138,0.042-0.348,0.098
	c-0.034-0.291-0.121-0.57-0.089-0.834c0.234-1.925,0.511-3.846,0.728-5.773c0.042-0.37-0.119-0.762-0.187-1.144
	c-0.166-0.016-0.331-0.032-0.497-0.048c-0.385,1.273-0.898,2.522-1.13,3.822c-0.626,3.515-0.953,7.091-1.727,10.569
	c-1.349,6.063-3.025,12.044-6.057,17.54c-0.254,0.459-0.625,0.857-1.099,1.201c0.551-2.479,1.068-4.963,1.66-7.432
	c0.989-4.128,1.049-8.309,0.794-12.513c-0.113-1.861-0.266-3.722-0.332-5.585c-0.028-0.792-0.3-1.07-1.346-0.743
	c0.167,1.639,0.365,3.35,0.509,5.066c0.259,3.091-0.483,5.984-1.821,8.747c-0.049,0.101-0.145,0.185-0.233,0.257
	c-0.086,0.071-0.193,0.117-0.555,0.328c0.382-3.617,0.745-7.046,1.118-10.57c-0.398-0.028-0.722-0.052-1.044-0.076
	c-0.077,0.166-0.15,0.263-0.167,0.368c-1.253,8.14-2.804,16.215-5.313,24.076c-0.164,0.514-0.364,1.027-0.62,1.5
	c-8.113,15.018-20.156,25.635-35.934,32.063c-1.561,0.635-3.182,0.273-4.535-0.334c-5.897-2.652-10.334-6.73-11.872-13.301
	c-1.039-4.439-0.362-8.809,0.791-13.123c2.14-8.01,5.801-15.373,9.717-22.622c4.523-8.372,10.751-15.39,17.535-21.95
	c2.625-2.539,5.411-4.909,8.078-7.404c0.884-0.827,1.578-1.855,2.451-2.697c0.774-0.746,1.581-1.583,2.539-1.994
	c4.341-1.867,8.658-3.848,13.138-5.318c6.778-2.225,13.683-4.061,20.535-6.059c0.933-0.272,0.936-0.265,0.833-1.408
	c-2.938,0.587-5.78,1.156-8.629,1.725c-0.343-0.734-0.156-1.05,0.603-1.277c7.577-2.264,15.442-2.912,23.194-4.194
	c0.222-0.037,0.455-0.004,1.012-0.004C304.961,49.22,304.514,49.488,304.066,49.753z M369.883,71.299
	c-0.57,0.836-1.03,1.51-1.663,2.437C367.833,71.694,368.126,71.267,369.883,71.299z M316.516,69.832
	c0.561-0.978,1.122-1.957,1.684-2.935C318.683,68.771,318.144,69.723,316.516,69.832z M317.193,58.003
	c0.161,0.113,0.322,0.227,0.483,0.34c-0.457,0.664-0.916,1.328-1.373,1.992c-0.174-0.141-0.348-0.281-0.521-0.421
	C316.252,59.277,316.723,58.64,317.193,58.003z M309.605,105.787c3.929-9.458,7.618-19.026,11.902-28.319
	c1.979-4.292,3.204-8.789,4.969-13.113c0.965-2.362,2.086-4.674,3.317-6.909c1.258-2.281,3.173-3.289,5.955-3.197
	c7.693,0.254,15.244,1.23,22.572,3.629c1.428,0.467,2.805,1.13,4.14,1.827c0.975,0.508,1.87,1.242,1.732,2.528
	c-0.139,1.298-1.055,1.915-2.227,2.238c-0.177,0.049-0.338,0.156-0.816,0.385c0.721,0.434,1.238,0.745,1.812,1.09
	c0.899,5.848-2.877,13.664-7.677,15.201c0.457-1.198,0.845-2.214,1.232-3.229c-0.087-0.069-0.175-0.137-0.263-0.206
	c-0.269,0.204-0.579,0.37-0.8,0.617c-0.908,1.012-1.823,2.021-2.674,3.082c-5.378,6.705-12.214,11.432-20.081,14.717
	c-4.079,1.703-8.228,3.239-12.345,4.849c-0.356,0.139-0.719,0.264-1.11,0.408c0.016,0.229-0.014,0.43,0.046,0.601
	c0.499,1.438,0.519,1.622-0.913,2.075c-2.871,0.907-5.79,1.663-8.921,2.547C309.543,106.113,309.543,105.938,309.605,105.787z
	 M327.076,104.316c-1.495,2.821-16.026,5.852-18.216,5.004C309.797,108.498,324.929,104.341,327.076,104.316z M307.733,113.318
	c2.771-0.703,5.559-1.344,8.357-1.926c0.24-0.051,0.604,0.484,1.127,0.936c-3.723,0.813-7.098,1.551-10.473,2.289
	c-0.063-0.123-0.125-0.244-0.188-0.367C306.946,113.93,307.292,113.432,307.733,113.318z M335.448,154.617
	c-2.143-1.469-4.248-2.992-6.332-4.543c-0.326-0.242-0.461-0.744-0.531-1.254c3.412,2.258,7.701,3.232,9.792,7.426
	C337.315,155.662,336.327,155.219,335.448,154.617z M344.447,160.455c1.376,0.771,2.567,1.439,3.835,2.148
	C346.494,163.123,345.114,162.398,344.447,160.455z M393.708,187.053c-0.158,0.328-0.291,0.602-0.481,0.994
	c-4.574-1.992-8.994-4.148-12.883-7.412C381.717,180.301,389.765,184.203,393.708,187.053z M369.046,157.332
	c-1.033,1.947-2.172,3.838-3.325,5.852c-0.477-0.293-0.888-0.547-1.327-0.818c1.249-2.676,2.457-5.264,3.703-7.932
	c0.537,0.178,0.976,0.322,1.686,0.557C369.54,155.793,369.419,156.629,369.046,157.332z M370.611,151.664
	c-0.392-1.889-0.051-2.803,1.14-2.922C371.322,149.84,370.966,150.752,370.611,151.664z M407.5,75.043
	c-0.092-0.076-0.183-0.152-0.274-0.228c0.127-0.645,0.254-1.291,0.381-1.936c0.14-0.039,0.278-0.078,0.418-0.117
	c0.179,0.452,0.559,0.945,0.478,1.344C408.426,74.472,407.853,74.735,407.5,75.043z M336.958,28.527
	c2.862-1.526,5.949-1.209,9.013-1.09C342.965,27.825,340.195,29.902,336.958,28.527z M407.422,32.675
	c-0.263,0.055-0.522,0.137-0.788,0.159c-1.934,0.165-3.866,0.355-5.804,0.454c-0.763,0.039-1.536-0.185-2.307-0.202
	c-0.867-0.018-1.736,0.069-2.604,0.099c-0.992,0.033-1.984,0.072-2.978,0.073c-0.938,0.001-1.89-0.154-2.813-0.048
	c-3.235,0.37-6.428,0.836-9.726,0.271c-1.755-0.3-3.639,0.033-5.451,0.216c-2.933,0.296-5.854,0.706-8.782,1.063
	c-0.268,0.033-0.567,0.11-0.807,0.031c-2.574-0.848-5.162-0.118-7.741-0.093c-2.68,0.026-5.358,0.117-8.038,0.165
	c-0.625,0.011-1.286,0.015-1.353-0.972c3.838-0.326,7.66-0.639,11.48-0.977c11.13-0.982,22.285-0.359,33.428-0.543
	c0.656-0.011,1.31-0.131,1.966-0.169c1.745-0.101,3.491-0.258,5.237-0.253c1.562,0.003,3.085,0.521,4.7-0.02
	c0.68-0.228,1.589,0.233,2.395,0.381C407.432,32.432,407.427,32.553,407.422,32.675z M416.51,22.148
	c-12.224,0.471-24.448,0.952-36.672,1.453c-1.231,0.05-2.462,0.222-3.687,0.387c-0.856,0.115-0.852,0.153-1.223-0.775
	c2.817-0.138,5.626-0.225,8.426-0.426c2.864-0.206,5.717-0.667,8.582-0.753c2.846-0.085,5.705-0.93,8.554-0.014
	c2.806-0.955,5.702-0.307,8.553-0.474c2.855-0.168,5.714-0.272,8.58-0.404C417.602,21.864,417.219,22.121,416.51,22.148z
	 M419.846,49.857c-0.069,0.181-0.382,0.393-0.558,0.372c-0.158-0.019-0.371-0.322-0.404-0.524c-0.159-0.987,0.316-1.425,1.324-1.28
	C420.094,48.904,420.022,49.4,419.846,49.857z M422.351,43.038c-0.134-0.036-0.268-0.073-0.402-0.109
	c0.072-0.397,0.075-0.824,0.229-1.187c0.648-1.531,1.376-3.029,2.004-4.568c0.244-0.598,0.482-0.951,1.307-0.588
	C424.683,38.867,424.283,41.329,422.351,43.038z"/>
</svg>
