<?xml version="1.0" encoding="utf-8"?>
<!-- Generator: Adobe Illustrator 16.0.0, SVG Export Plug-In . SVG Version: 6.00 Build 0)  -->
<!DOCTYPE svg PUBLIC "-//W3C//DTD SVG 1.1//EN" "http://www.w3.org/Graphics/SVG/1.1/DTD/svg11.dtd">
<svg version="1.1" id="Layer_3" xmlns="http://www.w3.org/2000/svg" xmlns:xlink="http://www.w3.org/1999/xlink" x="0px" y="0px"
	 width="942.094px" height="774.078px" viewBox="0 0 942.094 774.078" enable-background="new 0 0 942.094 774.078"
	 xml:space="preserve">
<polygon fill="#191919" points="298.741,547.23 303.393,542.578 226.003,542.578 226.003,520.863 264.287,482.578 360.558,482.578 
	328.718,442.578 247.719,442.578 186.003,504.295 186.003,582.578 298.741,582.578 "/>
<polygon fill="#191919" points="670.574,184.211 545.619,184.211 526.837,208.882 543.85,208.882 560.48,230.726 565.44,224.211 
	650.754,224.211 691.331,277.51 691.331,340.233 651.022,390.875 620.337,390.875 620.337,420.957 612.443,430.875 670.307,430.875 
	731.331,354.209 731.331,264.016 "/>
<polygon fill="#191919" points="688.381,442.578 603.126,442.578 572.69,480.816 574.451,482.578 671.813,482.578 704.097,514.863 
	704.097,542.578 633.103,542.578 633.103,582.578 744.097,582.578 744.097,498.295 "/>
<polygon fill="#191919" points="311.507,420.957 311.507,390.875 279.078,390.875 238.769,340.233 238.769,277.51 279.346,224.211 
	364.66,224.211 370.492,231.872 387.994,208.882 403.263,208.882 384.481,184.211 259.526,184.211 198.769,264.016 198.769,354.209 
	259.793,430.875 319.402,430.875 "/>
<polygon fill="none" stroke="#191919" stroke-width="40" stroke-miterlimit="10" points="569.156,326.616 569.156,403.074 
	518.49,466.727 413.355,466.727 362.688,403.074 362.688,326.616 413.355,260.063 518.49,260.063 "/>
<polygon fill="none" stroke="#191919" stroke-width="40" stroke-miterlimit="10" points="349.922,618.43 581.922,618.43 
	581.922,562.43 537.922,518.43 399.922,518.43 349.922,568.43 "/>
<path fill="#191919" d="M370.492,231.872"/>
</svg>
